<svg viewBox="0 0 390 318" fill="none" xmlns="http://www.w3.org/2000/svg">
<path fill-rule="evenodd" clip-rule="evenodd" d="M199.682 87.7076C201.163 92.4264 194.81 94.0103 194.81 94.0103C194.81 94.0103 187.906 89.7342 179.807 85.1213C179.61 85.1213 179.415 85.1376 179.215 85.1376C177.056 85.1351 174.935 84.5652 173.067 83.4853C171.2 82.4053 169.649 80.8539 168.577 78.9871L168.002 78.6937C166.493 79.5313 164.823 80.043 163.103 80.1956C161.382 80.3479 159.648 80.1377 158.015 79.5785C156.381 79.0191 154.884 78.1234 153.621 76.9496C152.358 75.7758 151.358 74.3501 150.685 72.7655C150.012 71.1811 149.682 69.4731 149.716 67.7528C149.75 66.0328 150.147 64.339 150.882 62.7822C151.617 61.2253 152.673 59.84 153.982 58.7166C155.29 57.5931 156.822 56.757 158.476 56.2622C161.802 54.3605 161.621 48.7777 161.621 48.7777C161.621 48.7777 179.715 54.4393 180.942 58.9218C181.097 59.4923 181.228 60.1551 181.356 60.8751C183.939 61.3273 186.308 62.5914 188.116 64.4817C189.925 66.3721 191.079 68.7898 191.408 71.3804C191.394 71.3804 191.425 71.3804 191.408 71.3804C191.606 73.9694 195.773 74.654 196.046 74.7763C199.166 75.5722 201.163 77.6722 201.999 80.9241C202.502 82.9534 201.654 85.6809 199.682 87.7076Z" fill="#F16465"/>
<path fill-rule="evenodd" clip-rule="evenodd" d="M205.494 287.733L190.288 286.51H183.561C179.379 289.605 172.922 293.617 171.831 289.82C170.87 286.475 171.903 283.653 174.158 275.382C174.251 271.036 174.284 268.047 174.284 268.047L186.897 267.911L187.042 276.231L205.494 287.733Z" fill="#FFB9B2"/>
<path fill-rule="evenodd" clip-rule="evenodd" d="M174.286 293.339C168.31 291.526 169.907 285.361 169.907 285.361C169.907 285.361 170.998 286 177.981 284.443C178.835 284.251 179.65 284.038 180.436 283.81L172.922 279.79L173.967 275.715L185.533 281.911C189.302 280.178 191.308 278.452 191.308 278.452C191.308 278.452 194.936 281.353 200.962 283.242C204.98 284.5 208.996 283.785 208.996 283.785L210.203 294.171C210.203 294.171 206.577 294.148 196.709 294.148C189.146 294.161 175.95 293.845 174.286 293.339Z" fill="#7A77FF"/>
<path fill-rule="evenodd" clip-rule="evenodd" d="M184.696 282.943C184.979 282.943 185.256 283.027 185.491 283.183C185.726 283.34 185.911 283.564 186.018 283.825C186.127 284.084 186.154 284.372 186.1 284.648C186.045 284.924 185.909 285.179 185.707 285.378C185.508 285.578 185.252 285.714 184.975 285.768C184.696 285.825 184.408 285.796 184.148 285.687C183.886 285.58 183.661 285.396 183.504 285.162C183.347 284.928 183.263 284.653 183.263 284.37C183.263 283.992 183.414 283.629 183.682 283.361C183.951 283.094 184.316 282.943 184.696 282.943Z" fill="black"/>
<path fill-rule="evenodd" clip-rule="evenodd" d="M174.286 268.168V268.043L186.899 267.907L186.979 272.538C182.333 270.381 177.054 268.879 174.286 268.168Z" fill="black"/>
<path fill-rule="evenodd" clip-rule="evenodd" d="M188.809 161.487V268.033H174.079L168.35 161.951C168.235 159.789 168.816 157.647 170.012 155.839C171.206 154.03 172.95 152.649 174.989 151.9C176.542 151.329 178.208 151.141 179.849 151.35C181.49 151.559 183.055 152.16 184.411 153.102C185.768 154.043 186.876 155.297 187.642 156.757C188.408 158.217 188.809 159.84 188.809 161.487Z" fill="#7A77FF"/>
<path d="M178.999 268.179C178.928 268.179 178.858 268.15 178.806 268.099C178.756 268.047 178.726 267.978 178.726 267.907L175.021 168.89C175.021 168.818 175.048 168.748 175.1 168.698C175.151 168.647 175.22 168.618 175.293 168.618C175.365 168.618 175.434 168.647 175.486 168.698C175.537 168.748 175.566 168.818 175.566 168.89L179.272 267.916C179.272 267.987 179.244 268.056 179.192 268.108C179.142 268.158 179.072 268.187 178.999 268.187V268.179Z" fill="#2D29C1"/>
<path fill-rule="evenodd" clip-rule="evenodd" d="M132.786 267.771C132.786 267.771 132.548 269.863 131.73 275.564C132.614 284.09 134.019 286.474 133.058 289.82C131.422 295.525 108.173 286.497 108.173 286.497L117.867 276.916L120.448 267.5L132.786 267.771Z" fill="#FFB9B2"/>
<path fill-rule="evenodd" clip-rule="evenodd" d="M128.446 286.761C131.948 287.162 134.354 286.623 134.354 286.623C134.646 289.975 134.163 293.536 130.467 293.755L129.649 293.806H111.858L111.386 293.778C101.967 293.264 103.83 286.09 103.83 286.09C106.3 285.215 108.681 284.107 110.939 282.78C112.573 281.723 114.062 280.456 115.369 279.016C120.972 278.243 125.276 281.798 125.276 281.798L131.823 276.619L132.87 280.513L126.493 285.597L126.58 285.869C127.08 286.372 127.74 286.686 128.446 286.761Z" fill="#7A77FF"/>
<path fill-rule="evenodd" clip-rule="evenodd" d="M125.093 282.943C125.377 282.943 125.654 283.027 125.889 283.183C126.124 283.34 126.308 283.564 126.416 283.825C126.525 284.084 126.553 284.372 126.498 284.648C126.443 284.924 126.306 285.179 126.106 285.378C125.906 285.578 125.651 285.714 125.373 285.768C125.095 285.825 124.807 285.796 124.545 285.687C124.284 285.58 124.06 285.396 123.903 285.162C123.745 284.928 123.661 284.653 123.661 284.37C123.661 283.992 123.812 283.629 124.081 283.361C124.349 283.094 124.713 282.943 125.093 282.943Z" fill="black"/>
<path fill-rule="evenodd" clip-rule="evenodd" d="M132.786 267.771C132.786 267.771 132.644 269.015 132.207 272.174C127.698 269.121 122.565 267.828 121.083 267.512L132.786 267.771Z" fill="black"/>
<path fill-rule="evenodd" clip-rule="evenodd" d="M165.925 161.577L135.631 267.761H120.082L144.109 157.985C144.506 156.166 145.337 154.469 146.53 153.036C147.724 151.603 149.246 150.478 150.968 149.753C152.69 149.029 154.562 148.727 156.425 148.874C158.288 149.021 160.089 149.611 161.676 150.596C163.484 151.719 164.878 153.397 165.643 155.378C166.411 157.359 166.51 159.535 165.925 161.577Z" fill="#7A77FF"/>
<path fill-rule="evenodd" clip-rule="evenodd" d="M145.762 93.7658C144.589 92.8026 143.832 91.4282 143.646 89.9257C143.46 88.4231 143.86 86.9068 144.763 85.6891C147.345 82.0755 150.969 79.3282 155.153 77.8108L164.286 74.5046C164.286 74.5046 168.377 77.7646 172.469 78.0363C176.561 78.3079 177.698 73.9613 177.698 73.9613L184.016 75.9499C186.771 76.7281 189.232 78.3069 191.081 80.4844C192.932 82.6621 194.086 85.3397 194.4 88.1749L201.656 108.74H189.927V161.642C192.655 161.938 192.237 164.557 192.237 164.94C192.237 165.95 181.16 166.768 167.494 166.768C154.463 166.768 141.326 166.018 141.326 165.252L147.172 141.617H150.683L151.599 131.424L156.1 119.221L152.336 99.1584L145.762 93.7658Z" fill="#7A77FF"/>
<path d="M166.193 167.029C152.477 167.029 142.718 166.244 141.201 165.483C141.137 165.45 141.088 165.394 141.066 165.326C141.043 165.257 141.049 165.183 141.081 165.119C141.113 165.054 141.17 165.006 141.238 164.983C141.307 164.96 141.382 164.965 141.446 164.997C142.873 165.714 152.739 166.486 166.193 166.486C174.586 166.486 182.088 166.187 186.771 165.67C186.842 165.662 186.916 165.683 186.973 165.728C187.029 165.773 187.067 165.839 187.075 165.911C187.084 165.983 187.063 166.055 187.017 166.112C186.973 166.169 186.905 166.205 186.834 166.214C182.134 166.73 174.605 167.029 166.193 167.029ZM165.901 110.381H163.039C162.968 110.381 162.897 110.352 162.846 110.301C162.796 110.25 162.767 110.181 162.767 110.109C162.767 110.037 162.796 109.968 162.846 109.917C162.897 109.866 162.968 109.838 163.039 109.838H165.897C166.839 109.838 167.74 109.465 168.405 108.803C169.07 108.141 169.443 107.242 169.443 106.306V98.2075C169.141 98.251 168.743 98.2917 168.229 98.327C167.049 98.4112 165.501 98.4574 163.828 98.4574C162.156 98.4574 160.603 98.4112 159.425 98.327C157.66 98.2021 157.112 98.0554 157.112 97.474C157.112 97.4019 157.141 97.3327 157.192 97.2819C157.243 97.231 157.312 97.2023 157.385 97.2023C157.457 97.2023 157.526 97.231 157.578 97.2819C157.629 97.3327 157.658 97.4019 157.658 97.474C157.656 97.4838 157.656 97.4938 157.658 97.5039C157.718 97.5745 158.083 97.6859 159.461 97.7755C160.629 97.857 162.188 97.9032 163.824 97.9032C165.461 97.9032 167.022 97.857 168.189 97.7755C168.682 97.7503 169.173 97.694 169.66 97.6071C169.699 97.5985 169.741 97.599 169.781 97.6084C169.821 97.6178 169.857 97.6359 169.888 97.6614C169.92 97.6869 169.947 97.7193 169.964 97.7559C169.981 97.7927 169.989 97.8328 169.989 97.8733V106.295C169.991 106.831 169.886 107.362 169.683 107.857C169.477 108.353 169.177 108.803 168.797 109.182C168.417 109.562 167.966 109.863 167.469 110.069C166.972 110.275 166.439 110.38 165.901 110.381ZM176.777 90.465C176.659 90.4652 176.546 90.428 176.452 90.359L162.922 80.4133C162.039 79.726 161.159 78.4981 161.342 77.1126C161.518 75.7868 162.433 74.73 164.086 73.9721C164.154 73.9418 164.227 73.9389 164.296 73.9637C164.363 73.9888 164.42 74.0396 164.449 74.1052C164.481 74.1708 164.483 74.2456 164.458 74.3133C164.433 74.3813 164.382 74.4362 164.315 74.4665C162.851 75.1403 162.032 76.0558 161.883 77.1832C161.732 78.3106 162.492 79.3918 163.247 79.9841L176.777 89.9216L182.073 79.6391C182.367 79.1981 182.526 78.682 182.533 78.153C182.533 75.8683 179.878 74.6648 177.652 74.0617C177.618 74.0523 177.585 74.0362 177.558 74.0143C177.528 73.9924 177.505 73.9652 177.486 73.9341C177.469 73.9031 177.459 73.8689 177.453 73.8333C177.448 73.798 177.453 73.7621 177.461 73.7276C177.48 73.6586 177.526 73.5999 177.589 73.5644C177.65 73.5289 177.725 73.519 177.795 73.5374C181.253 74.4747 183.078 76.0721 183.078 78.1558C183.07 78.7816 182.879 79.3918 182.533 79.9134L177.249 90.1743C177.211 90.2428 177.159 90.3026 177.096 90.3494C177.035 90.3964 176.962 90.4292 176.886 90.446C176.85 90.4566 176.813 90.4629 176.777 90.465Z" fill="#2D29C1"/>
<path fill-rule="evenodd" clip-rule="evenodd" d="M200.465 161.837C200.299 162.612 199.443 163.769 197.898 164.356C197.244 165.312 195.273 165.809 194.457 165.51C193.114 166.757 191.885 166.616 191.266 166.284C186.547 167.099 187.39 163.916 187.39 163.916L187.201 160.302C186.062 161.001 185.292 160.737 185.292 160.737C185.292 160.737 186.383 158.327 186.905 152.201C187.119 149.615 188.555 148.414 189.791 147.855L189.843 124.763L199.447 124.559V146.972C201.338 152.712 201.098 158.882 200.465 161.837Z" fill="#FFB9B2"/>
<path d="M191.266 166.556C191.203 166.556 191.14 166.534 191.089 166.494C191.062 166.471 191.039 166.442 191.022 166.411C191.006 166.379 190.997 166.344 190.993 166.309C190.991 166.273 190.995 166.237 191.005 166.203C191.016 166.169 191.033 166.138 191.056 166.111C192.034 164.951 192.602 163.149 192.619 161.172C192.619 161.1 192.648 161.03 192.699 160.98C192.751 160.929 192.821 160.9 192.892 160.9C192.965 160.9 193.035 160.929 193.085 160.98C193.135 161.03 193.165 161.1 193.165 161.172C193.148 163.277 192.533 165.203 191.473 166.456C191.448 166.486 191.417 166.511 191.381 166.529C191.345 166.546 191.306 166.555 191.266 166.556ZM194.663 165.79C194.612 165.79 194.564 165.776 194.52 165.749C194.459 165.712 194.415 165.651 194.398 165.582C194.382 165.512 194.394 165.438 194.43 165.377C194.957 164.529 195.59 163.062 195.609 160.892C195.609 160.82 195.639 160.751 195.689 160.7C195.739 160.649 195.811 160.62 195.882 160.62C195.953 160.62 196.025 160.649 196.075 160.7C196.125 160.751 196.155 160.82 196.155 160.892C196.136 163.19 195.458 164.752 194.894 165.66C194.871 165.699 194.837 165.732 194.795 165.755C194.755 165.778 194.709 165.79 194.663 165.79ZM197.898 164.63C197.854 164.63 197.81 164.62 197.772 164.6C197.741 164.584 197.712 164.561 197.689 164.534C197.665 164.507 197.649 164.475 197.636 164.441C197.626 164.407 197.621 164.371 197.626 164.335C197.628 164.3 197.638 164.265 197.655 164.233C198.297 162.941 198.626 161.516 198.612 160.074C198.616 160.003 198.645 159.936 198.696 159.886C198.746 159.835 198.813 159.806 198.885 159.802C198.958 159.802 199.027 159.831 199.078 159.882C199.13 159.933 199.157 160.002 199.157 160.074C199.17 161.601 198.82 163.11 198.138 164.478C198.117 164.523 198.081 164.561 198.039 164.588C197.997 164.614 197.949 164.629 197.898 164.63ZM189.123 162.552H189.083C189.012 162.542 188.947 162.505 188.903 162.448C188.859 162.391 188.84 162.319 188.851 162.247C189.048 160.501 189.14 158.745 189.123 156.988C189.083 156.989 189.044 156.982 189.008 156.966C188.762 158.301 188.154 159.543 187.245 160.555C187.197 160.608 187.128 160.639 187.057 160.642C186.983 160.645 186.914 160.619 186.859 160.57C186.807 160.521 186.775 160.453 186.773 160.381C186.769 160.309 186.796 160.238 186.845 160.186C187.68 159.252 188.244 158.112 188.481 156.885C188.492 156.813 188.515 156.745 188.55 156.683C188.588 156.621 188.637 156.567 188.693 156.523C188.811 156.437 188.955 156.4 189.098 156.42C189.13 156.424 189.159 156.433 189.188 156.445C189.323 156.458 189.449 156.52 189.541 156.621C189.631 156.722 189.681 156.852 189.681 156.988C189.698 158.77 189.606 160.55 189.409 162.321C189.398 162.387 189.363 162.448 189.31 162.49C189.258 162.532 189.19 162.553 189.123 162.549V162.552Z" fill="black"/>
<path fill-rule="evenodd" clip-rule="evenodd" d="M158.353 84.0917C158.953 85.2632 159.219 86.5756 159.122 87.8867C159.026 89.198 158.572 90.4579 157.808 91.53L144.747 109.786C144.747 109.786 144.883 110.234 141.746 107.509C138.609 104.785 133.689 102.334 133.689 102.334L132.944 101.647L144.763 85.6891C145.694 84.3891 146.764 83.194 147.955 82.1249C148.719 81.4474 149.629 80.9536 150.615 80.6817C151.601 80.41 152.637 80.3676 153.642 80.5576C154.647 80.7477 155.595 81.1653 156.412 81.778C157.229 82.3909 157.894 83.1825 158.356 84.0917H158.353Z" fill="#7A77FF"/>
<path fill-rule="evenodd" clip-rule="evenodd" d="M139.308 104.888C142.472 107.061 145.003 109.416 144.75 109.778C144.496 110.139 141.316 108.525 138.149 106.366C134.982 104.206 132.693 102.019 132.949 101.639C133.206 101.258 136.127 102.725 139.308 104.888Z" fill="black"/>
<path fill-rule="evenodd" clip-rule="evenodd" d="M161.483 143.093C161.713 141.408 161.776 139.704 161.676 138.007C161.541 135.201 158.675 132.891 156.381 131.487L142.671 111.595C142.671 111.481 142.687 111.367 142.687 111.25C142.68 109.947 142.181 108.693 141.288 107.739C140.396 106.785 139.176 106.2 137.87 106.101C136.565 106.001 135.27 106.394 134.242 107.202C133.214 108.009 132.529 109.172 132.322 110.46C132.313 110.49 132.306 110.521 132.303 110.552C132.303 110.59 132.303 110.628 132.303 110.666C132.303 110.704 132.303 110.737 132.303 110.772C132.131 112.75 132.689 114.723 133.874 116.32L148.299 136.896C148.269 141.327 148.277 144.943 148.678 147.203C148.814 147.988 149.932 149.403 151.463 150.047C152.387 151.039 153.918 151.134 154.578 151.115C156.25 152.147 157.644 151.914 158.904 152.144C161.583 152.633 161.747 149.77 161.747 149.77L162.152 145.201C162.152 145.201 161.822 144.32 161.483 143.093Z" fill="#FFB9B2"/>
<path fill-rule="evenodd" clip-rule="evenodd" d="M139.139 105.111C138.048 104.372 137.085 103.752 136.261 103.285L133.034 108.512C132.656 109.119 132.408 109.798 132.306 110.505C132.203 111.212 132.248 111.933 132.438 112.622C132.628 113.311 132.959 113.954 133.41 114.51C133.861 115.066 134.422 115.523 135.058 115.853C135.694 116.183 136.392 116.379 137.108 116.429C137.824 116.478 138.542 116.38 139.218 116.14C139.894 115.9 140.513 115.524 141.036 115.035C141.559 114.546 141.976 113.955 142.259 113.299L144.3 109.408C143.708 108.667 141.817 106.939 139.139 105.111Z" fill="#FFB9B2"/>
<path fill-rule="evenodd" clip-rule="evenodd" d="M147.84 141.598C147.84 141.598 148.781 141.919 154.131 141.919C159.48 141.919 162.259 142.19 162.259 141.959V155.342C162.259 156.529 161.789 157.669 160.95 158.513C160.112 159.358 158.973 159.838 157.78 159.851L143.869 160.009L147.84 141.598Z" fill="#7A77FF"/>
<path d="M157.938 159.985H153.331C153.259 159.985 153.19 159.956 153.138 159.905C153.087 159.854 153.058 159.785 153.058 159.713C153.058 159.641 153.087 159.572 153.138 159.521C153.19 159.47 153.259 159.441 153.331 159.441H157.938C159.012 159.44 160.041 159.014 160.798 158.259C161.558 157.503 161.986 156.478 161.986 155.41V142.234C161.39 142.234 160.641 142.234 159.804 142.234C157.671 142.234 150.486 142.207 147.548 141.856C147.513 141.852 147.478 141.841 147.447 141.824C147.415 141.807 147.388 141.783 147.366 141.755C147.343 141.727 147.327 141.695 147.317 141.661C147.307 141.626 147.304 141.59 147.308 141.555C147.313 141.519 147.324 141.485 147.342 141.454C147.359 141.423 147.383 141.395 147.412 141.373C147.44 141.351 147.473 141.335 147.507 141.326C147.542 141.316 147.578 141.314 147.614 141.318C150.522 141.663 157.679 141.691 159.804 141.691C160.784 141.691 161.631 141.691 162.259 141.677C162.294 141.677 162.33 141.684 162.364 141.697C162.397 141.711 162.427 141.73 162.454 141.756C162.479 141.781 162.5 141.811 162.513 141.844C162.527 141.877 162.534 141.913 162.536 141.949V155.399C162.536 156.001 162.418 156.597 162.187 157.153C161.957 157.709 161.619 158.215 161.191 158.641C160.765 159.067 160.257 159.405 159.699 159.635C159.141 159.866 158.543 159.985 157.938 159.985Z" fill="#5347E9"/>
<path fill-rule="evenodd" clip-rule="evenodd" d="M173.048 39.226C175.333 39.226 177.568 39.901 179.467 41.1655C181.368 42.43 182.849 44.2271 183.722 46.3298C184.597 48.4327 184.826 50.7465 184.381 52.9788C183.934 55.211 182.835 57.2617 181.219 58.871C179.601 60.4803 177.543 61.5764 175.302 62.0205C173.061 62.4645 170.738 62.2365 168.625 61.3655C166.514 60.4945 164.71 59.0196 163.44 57.1271C162.171 55.2347 161.493 53.0097 161.493 50.7338C161.493 47.6817 162.71 44.7546 164.878 42.5965C167.045 40.4384 169.983 39.226 173.048 39.226Z" fill="#F16465"/>
<path fill-rule="evenodd" clip-rule="evenodd" d="M181.009 64.4665C178.896 66.3193 177.663 66.6588 177.663 66.6588C177.663 66.6588 177.702 71.0055 177.734 75.1892C179.182 75.6483 180.078 76.2758 180.078 76.9876C180.069 77.1845 180 77.374 179.88 77.5309L175.761 85.6809L164.783 78.0064C164.783 78.0064 164.164 77.6152 164.078 77.1723L164.932 56.7294L165.066 56.1236C164.896 56.1685 164.722 56.1913 164.548 56.1915C164.267 56.2018 163.988 56.1554 163.726 56.0555C163.463 55.9554 163.224 55.8039 163.023 55.6097C162.819 55.4156 162.66 55.183 162.549 54.9258C162.439 54.6683 162.383 54.3916 162.383 54.112C162.383 53.8324 162.439 53.5557 162.549 53.2983C162.66 53.041 162.819 52.8082 163.023 52.6141C163.224 52.4202 163.463 52.2684 163.726 52.1686C163.988 52.0687 164.267 52.0223 164.548 52.0323H164.624C164.941 52.1899 165.278 52.3637 165.637 52.5621C169.16 51.9888 168.946 50.4539 169.498 48.2154C169.498 48.2154 170.793 46.0176 178.758 46.2241C183.443 46.3436 184.459 48.9896 184.459 48.9896C184.459 48.9896 186.391 59.7476 181.009 64.4665Z" fill="#FFB9B2"/>
<path fill-rule="evenodd" clip-rule="evenodd" d="M177.662 66.7322C177.662 67.0664 177.679 68.6339 177.696 70.6551C169.401 69.2424 167.423 62.5051 167.423 62.5051C168.814 63.8824 170.463 64.976 172.276 65.7243C173.932 66.3953 176.087 66.6426 177.662 66.7322Z" fill="black"/>
<path d="M178.168 59.4162C177.757 59.4434 176.422 59.2967 175.604 58.5279C175.579 58.5026 175.558 58.4725 175.543 58.4395C175.531 58.4062 175.522 58.3707 175.522 58.335C175.522 58.299 175.531 58.2635 175.543 58.2305C175.558 58.1973 175.579 58.1674 175.604 58.1421C175.654 58.0915 175.724 58.0631 175.795 58.0631C175.868 58.0631 175.938 58.0915 175.988 58.1421C176.758 58.8647 178.08 58.8919 178.17 58.8919C178.244 58.889 178.313 58.9149 178.367 58.9638C178.42 59.0127 178.451 59.0806 178.454 59.1527C178.458 59.2248 178.43 59.295 178.382 59.3479C178.334 59.401 178.265 59.4323 178.193 59.4352L178.168 59.4162ZM177.406 57.4167C177.335 57.4167 177.266 57.3881 177.213 57.3371C177.163 57.2861 177.134 57.2172 177.134 57.1451C177.134 57.073 177.163 57.0038 177.213 56.9528C177.266 56.902 177.335 56.8734 177.406 56.8734C177.641 56.8857 177.874 56.8379 178.084 56.734C178.296 56.6304 178.475 56.4743 178.607 56.2812C178.991 55.6563 178.924 54.5153 178.435 53.4423C178.405 53.3766 178.403 53.3018 178.428 53.2343C178.454 53.1668 178.504 53.1121 178.571 53.0822C178.636 53.0523 178.712 53.0498 178.779 53.0749C178.846 53.1002 178.903 53.1512 178.932 53.2168C179.498 54.4692 179.553 55.784 179.07 56.5664C178.741 57.1098 178.187 57.3814 177.434 57.4167H177.406ZM165.702 54.5181C165.656 54.5181 165.61 54.5059 165.57 54.4827L163.879 53.5591C163.816 53.5229 163.77 53.4634 163.751 53.3934C163.732 53.3234 163.74 53.2485 163.778 53.1854C163.814 53.1225 163.873 53.0763 163.944 53.0571C164.013 53.0381 164.089 53.0475 164.152 53.0837L165.841 54.0073C165.895 54.036 165.937 54.0817 165.96 54.1373C165.985 54.1929 165.992 54.2548 165.975 54.3135C165.96 54.3722 165.927 54.4242 165.878 54.4612C165.83 54.4984 165.771 54.5183 165.711 54.5181H165.702ZM180.451 52.5756C180.405 52.5731 180.359 52.5585 180.319 52.5332C180.279 52.5081 180.248 52.473 180.224 52.4317C180.189 52.369 180.18 52.2948 180.199 52.2256C180.218 52.1562 180.264 52.0975 180.327 52.0622L182.012 51.1222C182.042 51.1043 182.077 51.0928 182.113 51.0882C182.149 51.0836 182.184 51.0861 182.22 51.0953C182.254 51.1047 182.287 51.1208 182.314 51.1425C182.344 51.1644 182.367 51.1916 182.386 51.2227C182.403 51.2537 182.415 51.2879 182.419 51.3235C182.424 51.359 182.421 51.3949 182.411 51.4296C182.403 51.4641 182.386 51.4965 182.365 51.5249C182.342 51.5533 182.314 51.577 182.285 51.5949L180.6 52.5349C180.556 52.5627 180.504 52.5767 180.451 52.5756ZM172.507 52.5756C172.446 52.5752 172.387 52.555 172.341 52.5175C172.293 52.4804 172.259 52.4283 172.245 52.3698C172.23 52.3113 172.234 52.2494 172.259 52.1943C172.285 52.1391 172.327 52.0935 172.379 52.0649L174.131 51.1249C174.194 51.0967 174.265 51.0934 174.33 51.1155C174.395 51.1379 174.45 51.1841 174.484 51.2447C174.515 51.3055 174.523 51.3761 174.507 51.4428C174.488 51.5092 174.446 51.5665 174.387 51.6031L172.639 52.543C172.597 52.5637 172.553 52.574 172.507 52.5729V52.5756ZM171.896 49.4651C171.825 49.469 171.754 49.4442 171.699 49.3961C171.645 49.3478 171.613 49.2803 171.609 49.2082C171.605 49.1361 171.63 49.0655 171.678 49.0118C171.726 48.9581 171.794 48.9257 171.867 48.9217L175.39 48.5197C175.426 48.5155 175.463 48.5184 175.497 48.528C175.533 48.5378 175.564 48.5544 175.591 48.5765C175.621 48.5987 175.644 48.6262 175.661 48.6576C175.68 48.6887 175.69 48.7232 175.694 48.7587C175.698 48.7943 175.694 48.8302 175.686 48.8645C175.675 48.899 175.659 48.9311 175.636 48.9591C175.615 48.9871 175.587 49.0105 175.556 49.0279C175.524 49.0452 175.489 49.0561 175.453 49.0603L171.93 49.4623L171.896 49.4651ZM179.534 49.4651C179.463 49.469 179.391 49.4442 179.337 49.3961C179.282 49.3478 179.251 49.2803 179.247 49.2082C179.242 49.1361 179.268 49.0655 179.316 49.0118C179.364 48.9581 179.431 48.9257 179.505 48.9217L183.028 48.5197C183.063 48.5155 183.101 48.5184 183.135 48.528C183.17 48.5378 183.202 48.5544 183.229 48.5765C183.259 48.5987 183.282 48.6262 183.298 48.6576C183.317 48.6887 183.328 48.7232 183.332 48.7587C183.336 48.7943 183.332 48.8302 183.324 48.8645C183.313 48.899 183.296 48.9311 183.273 48.9591C183.252 48.9871 183.225 49.0105 183.194 49.0279C183.162 49.0452 183.126 49.0561 183.091 49.0603L179.568 49.4623L179.534 49.4651Z" fill="black"/>
<path d="M181.131 53.4694C181.584 53.4694 181.951 53.1033 181.951 52.6517C181.951 52.2001 181.584 51.834 181.131 51.834C180.676 51.834 180.308 52.2001 180.308 52.6517C180.308 53.1033 180.676 53.4694 181.131 53.4694Z" fill="black"/>
<path d="M173.168 53.6895C173.621 53.6895 173.988 53.3234 173.988 52.8718C173.988 52.4202 173.621 52.054 173.168 52.054C172.715 52.054 172.348 52.4202 172.348 52.8718C172.348 53.3234 172.715 53.6895 173.168 53.6895Z" fill="black"/>
<path d="M253.373 135.388H214.093V187.743H253.373V135.388Z" fill="#88ADE6"/>
<path d="M249.68 130.006H220.35V146.817H249.68V130.006Z" fill="black"/>
<path fill-rule="evenodd" clip-rule="evenodd" d="M212.366 77.5527H255.549V129.916H212.366V77.5527Z" fill="#FECD5E"/>
<path fill-rule="evenodd" clip-rule="evenodd" d="M255.073 272.181L257.391 282.912C257.391 282.912 249.89 286.307 245.116 284.949C240.342 283.591 244.025 271.773 244.025 271.773L255.073 272.181Z" fill="#FFB9B2"/>
<path fill-rule="evenodd" clip-rule="evenodd" d="M256.22 274.655C256.22 274.655 254.311 275.115 253.19 277.482C252.769 278.433 252.706 279.503 253.012 280.496C253.012 280.496 250.198 284.054 247.055 281.446C243.165 278.22 242.418 278.314 242.418 278.314C242.418 278.314 238.632 285.883 240.426 291.897C241.15 294.321 253.094 293.949 260.505 293.845C286.064 293.492 288.57 291.927 288.57 291.927C288.57 291.927 287.55 289.12 279.897 287.879C276.958 287.398 256.22 274.655 256.22 274.655Z" fill="black"/>
<path fill-rule="evenodd" clip-rule="evenodd" d="M242.019 135.779C248.366 132.103 256.329 136.665 256.329 143.983V274.676H243.469L238.36 142.402C238.307 141.071 238.622 139.751 239.266 138.585C239.91 137.418 240.863 136.448 242.019 135.779Z" fill="black"/>
<path fill-rule="evenodd" clip-rule="evenodd" d="M264.613 284.608C264.557 284.608 264.502 284.592 264.456 284.56C264.41 284.527 264.374 284.481 264.355 284.429C264.337 284.374 264.334 284.318 264.351 284.264C264.366 284.209 264.397 284.161 264.441 284.126C265.627 283.219 266.917 282.458 268.285 281.856L268.892 282.209C267.434 282.815 266.059 283.601 264.798 284.546C264.748 284.59 264.681 284.613 264.613 284.608ZM262.058 283.121C262.009 283.16 261.951 283.181 261.888 283.183C261.831 283.183 261.777 283.167 261.73 283.133C261.684 283.102 261.649 283.056 261.63 283.001C261.611 282.949 261.609 282.891 261.626 282.836C261.64 282.782 261.672 282.734 261.716 282.698C262.95 281.758 264.297 280.972 265.723 280.362L266.324 280.715C264.804 281.334 263.371 282.14 262.058 283.121Z" fill="white"/>
<path fill-rule="evenodd" clip-rule="evenodd" d="M240.206 291.605H289.033V294.186H240.206V291.605Z" fill="#7A77FF"/>
<path fill-rule="evenodd" clip-rule="evenodd" d="M224.522 271.094L225.885 282.097C225.885 282.097 220.021 285.085 215.247 283.727C210.473 282.368 212.792 271.366 212.792 271.366L224.522 271.094Z" fill="#FFB9B2"/>
<path fill-rule="evenodd" clip-rule="evenodd" d="M212.158 274.745C212.158 274.745 218.12 274.022 219.406 280.431C221.504 280.212 223.525 279.52 225.315 278.41C225.315 278.41 227.944 283.844 227.648 291.588C216.959 291.588 197.271 291.613 197.271 291.613C197.271 291.613 197.239 289.58 205.5 285.231C210.685 281.501 212.158 274.745 212.158 274.745Z" fill="black"/>
<path fill-rule="evenodd" clip-rule="evenodd" d="M230.023 142.402L224.916 274.672H212.055V143.983C212.055 136.67 220.014 132.109 226.366 135.784C227.52 136.453 228.47 137.423 229.115 138.588C229.759 139.754 230.073 141.073 230.023 142.402Z" fill="black"/>
<path fill-rule="evenodd" clip-rule="evenodd" d="M215.277 284.293C215.342 284.324 215.392 284.381 215.417 284.447C215.442 284.514 215.438 284.59 215.407 284.654C215.386 284.702 215.352 284.742 215.308 284.769C215.264 284.796 215.214 284.813 215.161 284.813C215.121 284.813 215.083 284.803 215.048 284.786C211.166 282.987 208.067 283.647 207.009 283.971C207.263 283.729 207.504 283.476 207.737 283.221C209.267 282.916 211.986 282.767 215.277 284.293ZM216.389 282.64C216.349 282.64 216.309 282.629 216.271 282.613C213.115 281.148 210.478 281.311 209.032 281.599C209.183 281.386 209.324 281.175 209.46 280.964C211.048 280.73 213.552 280.749 216.504 282.12C216.569 282.151 216.619 282.207 216.645 282.274C216.67 282.341 216.666 282.416 216.634 282.481C216.613 282.529 216.58 282.569 216.535 282.596C216.491 282.623 216.441 282.64 216.389 282.64Z" fill="white"/>
<path fill-rule="evenodd" clip-rule="evenodd" d="M196.698 291.605H227.931V294.186H196.698V291.605Z" fill="#7A77FF"/>
<path fill-rule="evenodd" clip-rule="evenodd" d="M211.109 76.9305H210.119C207.79 76.9305 205.555 77.8521 203.908 79.4926C202.261 81.1332 201.335 83.3582 201.335 85.6782C201.335 87.9982 202.261 90.2232 203.908 91.8636C205.555 93.5043 207.79 94.4259 210.119 94.4259C210.289 94.4255 210.457 94.4129 210.627 94.3878L211.514 111.429L211.539 137.311L208.363 138.077L211.56 159.33L211.594 190.479C214.76 190.479 217.798 189.226 220.037 186.995C222.278 184.765 223.535 181.74 223.535 178.586V76.9305H211.109Z" fill="#88ADE6"/>
<path fill-rule="evenodd" clip-rule="evenodd" d="M256.441 76.933H254.382L244.226 77.1314L244.499 178.588C244.499 181.742 245.758 184.768 247.997 186.998C250.236 189.229 253.274 190.482 256.441 190.482V152.948L256.069 94.4284C256.193 94.4284 256.319 94.4284 256.441 94.4284C258.77 94.4284 261.004 93.5068 262.652 91.8664C264.299 90.2259 265.224 88.0008 265.224 85.6807C265.224 83.3609 264.299 81.1357 262.652 79.4953C261.004 77.8548 258.77 76.933 256.441 76.933Z" fill="#88ADE6"/>
<path d="M255.628 160.232H253.832C252.473 160.23 251.167 159.692 250.202 158.734C249.239 157.777 248.696 156.478 248.692 155.122L248.807 138.678C248.807 138.606 248.834 138.536 248.887 138.486C248.937 138.435 249.006 138.406 249.08 138.406C249.126 138.406 253.593 138.319 255.354 138.159C255.389 138.155 255.425 138.159 255.459 138.17C255.494 138.18 255.526 138.198 255.553 138.221C255.58 138.244 255.603 138.272 255.62 138.304C255.637 138.336 255.647 138.37 255.649 138.406C255.656 138.478 255.633 138.549 255.587 138.604C255.54 138.659 255.473 138.693 255.402 138.699C253.868 138.841 250.345 138.922 249.348 138.944L249.237 155.122C249.239 156.335 249.722 157.498 250.584 158.356C251.444 159.214 252.613 159.697 253.83 159.699H255.626C255.698 159.699 255.767 159.728 255.817 159.779C255.87 159.83 255.899 159.899 255.899 159.971C255.899 160.043 255.87 160.112 255.817 160.163C255.767 160.214 255.698 160.243 255.626 160.243L255.628 160.232ZM213.87 160.232H211.774C211.701 160.232 211.631 160.203 211.581 160.152C211.529 160.101 211.501 160.032 211.501 159.96C211.501 159.888 211.529 159.819 211.581 159.768C211.631 159.717 211.701 159.688 211.774 159.688H213.87C215.087 159.687 216.254 159.206 217.114 158.35C217.977 157.494 218.461 156.333 218.466 155.122V138.944H218.193C215.797 138.944 213.413 138.843 211.646 138.672C211.573 138.666 211.508 138.632 211.462 138.577C211.413 138.522 211.392 138.451 211.396 138.379C211.401 138.343 211.411 138.308 211.428 138.276C211.445 138.245 211.466 138.217 211.495 138.194C211.522 138.171 211.554 138.153 211.587 138.143C211.623 138.132 211.659 138.128 211.694 138.132C213.442 138.292 215.811 138.384 218.193 138.39C218.659 138.39 218.994 138.39 218.994 138.71V155.122C218.99 156.474 218.449 157.77 217.49 158.727C216.529 159.685 215.23 160.225 213.87 160.232Z" fill="#5347E9"/>
<path fill-rule="evenodd" clip-rule="evenodd" d="M211.539 137.314C209.527 137.436 208.31 137.697 208.31 137.963C208.31 138.229 209.733 138.555 211.686 138.678L211.539 137.314Z" fill="#5347E9"/>
<path fill-rule="evenodd" clip-rule="evenodd" d="M233.924 68.5171C238.916 68.5171 243.169 69.2234 243.169 70.0955C243.169 70.9675 238.916 71.6739 233.924 71.6739C228.932 71.6739 224.597 71.0735 224.597 70.2014C224.597 69.3294 228.934 68.5171 233.924 68.5171Z" fill="black"/>
<path fill-rule="evenodd" clip-rule="evenodd" d="M242.034 52.2716C241.83 52.2716 241.627 52.2434 241.429 52.1874V55.4202H241.457V76.6944H226.418V63.2985C225.447 62.876 224.62 62.1805 224.039 61.297C223.458 60.4136 223.147 59.3805 223.145 58.3243V43.1653C223.145 41.7242 223.72 40.3423 224.744 39.3233C225.768 38.3044 227.155 37.732 228.6 37.732H235.965C237.413 37.732 238.8 38.3044 239.824 39.3233C240.848 40.3423 241.421 41.7242 241.421 43.1653V47.9331C241.618 47.8771 241.822 47.8487 242.025 47.8489C242.613 47.8489 243.179 48.0817 243.595 48.4965C244.012 48.9113 244.245 49.4736 244.245 50.0602C244.245 50.6466 244.012 51.2092 243.595 51.6238C243.179 52.0386 242.613 52.2716 242.025 52.2716H242.034Z" fill="#FFB9B2"/>
<path fill-rule="evenodd" clip-rule="evenodd" d="M226.418 63.3583C227.18 63.6854 228 63.8536 228.827 63.8527H230.89L226.418 68.1233V63.3583Z" fill="black"/>
<path fill-rule="evenodd" clip-rule="evenodd" d="M241.872 47.8323L238.442 50.9456C238.442 50.9456 238.442 45.4362 238.442 41.1656C238.452 41.062 238.459 40.9577 238.461 40.8532C238.459 40.372 238.328 39.8999 238.083 39.4853C237.837 39.0707 237.485 38.7284 237.063 38.4935C236.641 38.2586 236.165 38.1395 235.682 38.1485C235.198 38.1573 234.726 38.2939 234.314 38.5441L234.065 38.5794C228.664 41.7008 226.714 42.2034 226.714 42.2034C226.714 42.2034 226.714 42.1654 226.689 42.1083C226.129 42.3675 225.518 42.5029 224.901 42.505C224.282 42.5073 223.672 42.3762 223.109 42.1213C222.547 41.8661 222.046 41.4931 221.643 41.0273C221.238 40.5617 220.94 40.0144 220.77 39.4232C220.598 38.832 220.556 38.2107 220.648 37.6022C220.741 36.9937 220.963 36.4121 221.301 35.8974C221.641 35.3827 222.088 34.947 222.61 34.6204C223.135 34.2935 223.722 34.0835 224.335 34.0045C224.354 33.4259 224.507 32.8593 224.784 32.3505C225.061 31.8416 225.453 31.4045 225.932 31.0745C226.408 30.7445 226.958 30.5307 227.533 30.4503C228.108 30.3698 228.695 30.425 229.245 30.6114C241.088 32.7277 241.872 38.5604 241.872 41.0217C241.872 42.7169 241.891 47.8541 241.872 47.8323Z" fill="black"/>
<path d="M226.473 36.4033C226.383 36.4048 226.29 36.3975 226.2 36.3816C225.208 36.205 224.098 34.9934 223.844 34.1078C223.829 34.0545 223.831 33.9978 223.848 33.9454C223.867 33.8929 223.9 33.8472 223.945 33.8144C223.945 33.8027 223.945 33.791 223.945 33.779C223.938 33.7074 223.961 33.6361 224.007 33.5805C224.054 33.5249 224.119 33.4898 224.19 33.4829C225.214 33.3851 227.094 33.8904 227.6 34.7788C227.698 34.9437 227.742 35.1338 227.728 35.324C227.713 35.5144 227.64 35.6958 227.518 35.8437C227.405 36.0149 227.247 36.1553 227.067 36.2527C226.884 36.3503 226.681 36.4021 226.473 36.4033ZM224.396 34.0154C224.635 34.7299 225.554 35.7133 226.305 35.8464C226.452 35.8782 226.605 35.8644 226.744 35.8065C226.884 35.7486 227.002 35.6498 227.081 35.5231C227.14 35.4594 227.176 35.3785 227.184 35.2929C227.193 35.207 227.172 35.1211 227.126 35.0477C226.796 34.4691 225.35 33.9991 224.396 34.0263V34.0154Z" fill="#F8F9FD"/>
<path d="M233.324 50.0655C233.817 50.0655 234.218 49.6665 234.218 49.1744C234.218 48.6823 233.817 48.2833 233.324 48.2833C232.829 48.2833 232.428 48.6823 232.428 49.1744C232.428 49.6665 232.829 50.0655 233.324 50.0655Z" fill="black"/>
<path d="M225.697 50.0655C226.19 50.0655 226.59 49.6665 226.59 49.1744C226.59 48.6823 226.19 48.2833 225.697 48.2833C225.201 48.2833 224.803 48.6823 224.803 49.1744C224.803 49.6665 225.201 50.0655 225.697 50.0655Z" fill="black"/>
<path d="M229.522 55.8193C229.448 55.8193 229.379 55.7907 229.329 55.7399C229.276 55.6889 229.249 55.6198 229.249 55.5477C229.249 55.4758 229.276 55.4066 229.329 55.3556C229.379 55.3046 229.448 55.276 229.522 55.276C229.522 55.276 231.056 55.1103 231.509 54.2084C231.526 54.1753 231.547 54.1457 231.574 54.1212C231.601 54.0968 231.633 54.0778 231.666 54.0656C231.702 54.0535 231.738 54.0485 231.773 54.0506C231.811 54.0529 231.847 54.0625 231.878 54.0786C231.912 54.0949 231.941 54.1175 231.964 54.145C231.987 54.1726 232.006 54.2046 232.017 54.2393C232.029 54.274 232.031 54.3106 232.029 54.3467C232.025 54.3831 232.014 54.4182 231.998 54.4501C231.423 55.5993 229.763 55.8085 229.576 55.8085L229.522 55.8193ZM227.715 53.8335C227.642 53.8335 227.572 53.8048 227.522 53.7541C227.472 53.7031 227.442 53.6339 227.442 53.5618V52.0187C227.167 52.2507 226.817 52.3777 226.458 52.3773H222.171C221.766 52.3773 221.376 52.2166 221.089 51.9303C220.801 51.6438 220.64 51.2556 220.64 50.8506V46.4686C220.64 46.3967 220.667 46.3275 220.719 46.2765C220.77 46.2255 220.839 46.1969 220.912 46.1969H227.715C227.786 46.1969 227.858 46.2255 227.908 46.2765C227.958 46.3275 227.988 46.3967 227.988 46.4686V53.1543L229.194 52.6599C229.228 52.6431 229.264 52.6331 229.301 52.631C229.339 52.6287 229.375 52.6344 229.411 52.6473C229.446 52.6601 229.478 52.6801 229.505 52.7058C229.532 52.7318 229.553 52.7629 229.568 52.7974C229.583 52.8318 229.591 52.8688 229.589 52.9062C229.589 52.9437 229.58 52.9804 229.566 53.0145C229.549 53.0483 229.528 53.0789 229.499 53.1039C229.471 53.129 229.44 53.148 229.404 53.1597L227.822 53.8117C227.789 53.8268 227.751 53.8343 227.715 53.8335ZM221.185 46.7402V50.8506C221.185 51.1116 221.288 51.3617 221.475 51.546C221.659 51.7306 221.911 51.834 222.171 51.834H226.458C226.714 51.8342 226.962 51.7339 227.146 51.5546C227.331 51.3753 227.436 51.1314 227.442 50.875V46.7402H221.185ZM235.951 52.3773H231.664C231.259 52.3773 230.869 52.2166 230.581 51.9303C230.294 51.6438 230.132 51.2556 230.132 50.8506V46.4686C230.132 46.3967 230.16 46.3275 230.212 46.2765C230.262 46.2255 230.332 46.1969 230.405 46.1969H237.21C237.283 46.1969 237.353 46.2255 237.403 46.2765C237.455 46.3275 237.483 46.3967 237.483 46.4686V50.8506C237.483 51.2556 237.321 51.6438 237.034 51.9303C236.746 52.2166 236.356 52.3773 235.951 52.3773ZM230.688 46.7402V50.8506C230.688 51.1116 230.793 51.3617 230.978 51.546C231.163 51.7306 231.414 51.834 231.677 51.834H235.961C236.224 51.8334 236.473 51.7295 236.658 51.5452C236.843 51.3609 236.948 51.1112 236.948 50.8506V46.7402H230.688ZM240.542 51.1059C240.487 51.1057 240.433 51.0894 240.389 51.0591C240.345 51.0288 240.309 50.9858 240.288 50.9354C240.269 50.8853 240.265 50.8303 240.275 50.7774C240.286 50.7246 240.313 50.6763 240.353 50.6387L241.637 49.4162C241.69 49.3666 241.761 49.3397 241.832 49.3414C241.906 49.3432 241.973 49.3735 242.023 49.4258C242.074 49.478 242.101 49.5478 242.099 49.6199C242.097 49.692 242.067 49.7606 242.015 49.8101L240.727 51.0326C240.699 51.0572 240.67 51.0763 240.636 51.089C240.603 51.1015 240.567 51.1074 240.529 51.1059H240.542ZM235.273 48.555C235.233 48.5552 235.193 48.5464 235.158 48.5295C235.122 48.5126 235.089 48.4879 235.063 48.4572C235.026 48.411 234.155 47.3705 232.843 47.5417C232.77 47.5511 232.699 47.5314 232.64 47.4871C232.583 47.4428 232.545 47.3774 232.535 47.3053C232.526 47.2334 232.545 47.1605 232.589 47.103C232.633 47.0454 232.701 47.0077 232.772 46.9983C234.388 46.7946 235.441 48.0551 235.483 48.1094C235.506 48.1372 235.523 48.169 235.533 48.2033C235.544 48.2373 235.548 48.2733 235.544 48.309C235.542 48.3445 235.531 48.379 235.514 48.4106C235.496 48.4421 235.472 48.4699 235.445 48.4925C235.395 48.5349 235.33 48.5571 235.263 48.555H235.273ZM223.886 48.555C223.821 48.5552 223.76 48.533 223.712 48.4925C223.682 48.4697 223.661 48.4417 223.644 48.4102C223.628 48.3786 223.617 48.3439 223.613 48.3084C223.611 48.2729 223.613 48.2369 223.623 48.2029C223.634 48.1686 223.653 48.137 223.676 48.1094C223.787 47.9763 224.813 46.8054 226.385 47.001C226.456 47.0102 226.521 47.0474 226.567 47.1047C226.611 47.162 226.632 47.2347 226.622 47.3068C226.613 47.3789 226.576 47.4443 226.519 47.489C226.46 47.5335 226.389 47.5536 226.316 47.5444C225.008 47.3787 224.133 48.4164 224.096 48.4599C224.068 48.4923 224.033 48.5178 223.993 48.5343C223.955 48.5508 223.911 48.5579 223.869 48.555H223.886Z" fill="black"/>
<path fill-rule="evenodd" clip-rule="evenodd" d="M244.226 77.6967C244.226 77.6967 238.282 79.4462 232.95 79.4462C228.313 79.4462 223.535 78.2536 223.535 78.2536L223.495 70.1308C223.495 69.0713 225.017 68.5769 226.422 68.2699V69.2125C225.331 69.4842 224.687 69.7939 224.687 70.1417C224.687 71.011 228.733 71.7173 233.724 71.7173C238.716 71.7173 242.76 71.011 242.76 70.1417C242.76 69.8428 242.283 69.563 241.457 69.3267V68.3758C242.68 68.6909 244.226 69.1908 244.226 70.1444C244.256 70.09 244.226 77.6967 244.226 77.6967Z" fill="#FECD5E"/>
<path d="M233.655 79.3647C227.205 79.3647 223.258 77.789 223.258 76.9197C223.254 76.8476 223.277 76.7767 223.325 76.7224C223.374 76.6681 223.441 76.635 223.512 76.6304C223.586 76.6256 223.657 76.6499 223.712 76.6975C223.766 76.7452 223.8 76.8122 223.804 76.8843C224.077 77.3625 227.507 78.8105 233.66 78.8105C241.57 78.8105 243.876 77.1669 244.002 76.8436C244.023 76.774 244.069 76.7151 244.132 76.6798C244.195 76.6442 244.271 76.6352 244.34 76.6549C244.409 76.6743 244.468 76.7205 244.504 76.7834C244.539 76.8463 244.55 76.9207 244.529 76.9903C244.327 77.7727 241.383 79.3647 233.655 79.3647ZM233.744 71.758C229.398 71.758 224.708 71.1549 224.708 70.1823C224.7 70.1102 224.721 70.0377 224.765 69.9807C224.811 69.9236 224.876 69.8866 224.95 69.8781C225.021 69.8695 225.094 69.8898 225.151 69.9345C225.21 69.9794 225.245 70.045 225.254 70.1171C225.594 70.454 228.408 71.2038 233.752 71.2038C239.252 71.2038 241.694 70.4105 241.973 70.1171C241.977 70.0814 241.988 70.0469 242.004 70.0154C242.021 69.9838 242.044 69.956 242.074 69.9334C242.101 69.9109 242.132 69.8939 242.168 69.8837C242.202 69.8735 242.239 69.8703 242.275 69.8741C242.311 69.8776 242.344 69.8885 242.376 69.9056C242.409 69.9228 242.437 69.9458 242.46 69.9738C242.481 70.0016 242.5 70.0338 242.508 70.068C242.519 70.1025 242.523 70.1384 242.519 70.1742C242.506 71.0843 238.656 71.777 233.744 71.777V71.758Z" fill="black"/>
<path fill-rule="evenodd" clip-rule="evenodd" d="M211.909 77.3327C210.045 76.8123 208.056 76.9663 206.298 77.7669C204.537 78.5677 203.119 79.9634 202.294 81.7065L182.167 118.563C182.128 118.634 182.088 118.705 182.052 118.775L182.025 118.824C181.492 119.848 181.171 120.969 181.081 122.119C180.988 123.269 181.131 124.425 181.496 125.52C181.863 126.614 182.447 127.624 183.21 128.49C183.976 129.356 184.908 130.06 185.953 130.561C186.996 131.062 188.129 131.349 189.285 131.406C190.443 131.462 191.599 131.287 192.686 130.891C193.775 130.494 194.772 129.884 195.617 129.097C196.465 128.31 197.145 127.362 197.617 126.309L217.077 88.7454C217.601 87.6708 217.88 86.4949 217.897 85.3004C217.916 84.1061 217.668 82.9225 217.175 81.8337C216.682 80.7448 215.954 79.7772 215.043 78.9994C214.135 78.2216 213.063 77.6526 211.909 77.3327Z" fill="#88ADE6"/>
<path fill-rule="evenodd" clip-rule="evenodd" d="M220.306 126.154L198.377 112.717L188.135 87.7075L210.064 101.141L239.392 93.6869L249.644 118.699L220.306 126.154Z" fill="#7A77FF"/>
<path fill-rule="evenodd" clip-rule="evenodd" d="M209.976 101.093L220.306 126.154L198.377 112.717L188.135 87.7075L209.976 101.093Z" fill="#4D5EF3"/>
<path fill-rule="evenodd" clip-rule="evenodd" d="M206.038 114.372C206.713 114.339 207.418 117.466 207.611 121.356C207.804 125.247 207.422 128.591 206.747 128.623C206.069 128.656 205.358 125.363 205.165 121.476C204.972 117.588 205.364 114.402 206.038 114.372Z" fill="black"/>
<path fill-rule="evenodd" clip-rule="evenodd" d="M201.119 114.249C201.807 114.201 202.64 117.944 202.987 122.611C203.335 127.279 202.666 131.136 201.982 131.185C201.295 131.234 200.198 127.281 199.85 122.614C199.503 117.947 200.435 114.301 201.119 114.249Z" fill="black"/>
<path fill-rule="evenodd" clip-rule="evenodd" d="M199.98 122.579C199.98 121.076 199.776 116.102 201.086 113.85L190.093 114.168C189.971 114.168 189.845 114.168 189.719 114.168C188.569 114.147 187.428 114.356 186.358 114.78C185.29 115.204 184.318 115.836 183.496 116.639C182.675 117.442 182.025 118.399 181.58 119.456C181.135 120.512 180.906 121.646 180.906 122.792C180.906 123.937 181.135 125.072 181.58 126.128C182.025 127.185 182.675 128.142 183.496 128.945C184.318 129.748 185.29 130.38 186.358 130.804C187.428 131.228 188.569 131.436 189.719 131.416C190.177 131.415 190.632 131.38 191.083 131.31H201.774C201.228 130.563 199.98 126.643 199.98 122.579Z" fill="#88ADE6"/>
<path d="M190.099 114.44C189.963 114.44 189.826 114.44 189.719 114.44C189.648 114.44 189.579 114.411 189.526 114.36C189.476 114.309 189.446 114.24 189.446 114.168C189.446 114.096 189.476 114.027 189.526 113.976C189.579 113.925 189.648 113.896 189.719 113.896C189.847 113.896 189.992 113.896 190.107 113.896L200.874 113.739C200.945 113.739 201.016 113.767 201.067 113.818C201.117 113.869 201.147 113.938 201.147 114.01C201.147 114.082 201.117 114.152 201.067 114.203C201.016 114.254 200.945 114.282 200.874 114.282L190.099 114.44Z" fill="#5347E9"/>
<path fill-rule="evenodd" clip-rule="evenodd" d="M236.757 114.214C236.757 114.214 235.242 116.295 233.706 118.183C233.001 119.139 232.342 120.006 231.998 120.411C230.562 122.076 228.387 123.701 227.035 124.35C222.142 126.7 216.556 126.616 212.958 126.358L200.792 126.406V114.967L206.172 114.402C206.04 110.598 205.945 109.566 205.945 109.566C205.945 109.566 207.282 108.368 209.441 111.764C213.021 117.395 220.189 114.863 222.15 113.804C225.239 109.916 226.75 109.859 228.294 110.604C228.294 110.604 227.721 111.606 227.052 112.668C228.198 112.125 229.488 112.144 231.001 112.223C230.781 112.794 230.5 113.34 230.164 113.853C231.209 113.513 232.864 113.242 233.58 113.375C233.58 113.375 233.634 113.725 232.961 114.771C234.283 114.211 235.172 114.133 236.757 114.214Z" fill="#FFB9B2"/>
<path fill-rule="evenodd" clip-rule="evenodd" d="M205.118 120.011C205.102 117.778 205.442 115.469 206.023 114.369L201.404 114.407C201.201 114.406 200.995 114.42 200.792 114.448C200.284 114.448 199.973 117.349 199.994 121.253C200.026 125.04 200.754 128.436 201.241 128.612L206.384 128.569C205.903 127.637 205.15 123.945 205.118 120.011Z" fill="#FECD5E"/>
<path d="M224.906 122.174C224.843 122.175 224.78 122.155 224.729 122.116C224.681 122.076 224.645 122.021 224.633 121.959C224.624 121.924 224.624 121.888 224.631 121.853C224.637 121.817 224.652 121.784 224.671 121.754C224.691 121.723 224.717 121.698 224.746 121.677C224.775 121.657 224.811 121.643 224.845 121.636C226.867 121.218 228.542 119.495 229.092 118.919L229.188 118.822C229.681 118.322 230.865 116.751 232.522 114.396C232.554 114.295 232.617 114.206 232.701 114.141L233.059 113.625C232.203 113.627 231.362 113.834 230.604 114.228C230.565 114.246 230.523 114.26 230.479 114.268C230.443 114.277 230.407 114.277 230.372 114.271C230.336 114.265 230.3 114.252 230.271 114.232C230.239 114.213 230.214 114.188 230.193 114.158C230.172 114.128 230.158 114.095 230.151 114.059C230.137 113.99 230.149 113.918 230.187 113.858C230.225 113.798 230.283 113.756 230.353 113.739C231.351 113.227 232.472 113.001 233.59 113.087C233.639 113.089 233.685 113.104 233.725 113.131C233.767 113.157 233.798 113.194 233.819 113.236C233.84 113.279 233.851 113.327 233.846 113.375C233.844 113.422 233.827 113.468 233.8 113.508C233.634 113.75 233.397 114.089 233.122 114.483C233.099 114.514 233.072 114.54 233.041 114.559C233.032 114.595 233.018 114.63 232.997 114.66C231.805 116.36 230.244 118.523 229.578 119.194L229.488 119.289C228.909 119.903 227.142 121.707 224.96 122.169C224.941 122.173 224.924 122.175 224.906 122.174ZM230.361 113.752L230.432 114.01L230.388 113.739L230.361 113.752ZM222.15 120.892C222.115 120.895 222.079 120.891 222.043 120.88C222.01 120.869 221.978 120.852 221.951 120.829C221.924 120.805 221.901 120.777 221.884 120.745C221.867 120.714 221.857 120.679 221.855 120.643C221.85 120.607 221.855 120.572 221.867 120.537C221.878 120.503 221.894 120.472 221.918 120.444C221.941 120.417 221.97 120.394 222.001 120.378C222.033 120.362 222.069 120.352 222.104 120.348C224.354 119.965 224.559 119.762 226.469 117.83L226.616 117.681C227.4 116.887 229.616 113.752 230.552 112.391C229.641 112.215 228.391 112.277 227.551 112.761C227.493 112.795 227.421 112.805 227.356 112.79C227.289 112.775 227.23 112.735 227.191 112.679C226.099 114.211 224.668 116.211 224.041 116.83C221.96 118.936 221.638 119.259 219.148 119.683C219.112 119.689 219.074 119.688 219.041 119.68C219.005 119.673 218.972 119.658 218.942 119.637C218.913 119.617 218.888 119.59 218.869 119.56C218.85 119.529 218.837 119.496 218.831 119.46C218.818 119.389 218.835 119.316 218.877 119.258C218.919 119.199 218.984 119.16 219.053 119.148C221.372 118.754 221.588 118.534 223.653 116.45C224.471 115.635 226.903 112.168 228.078 110.452C228.118 110.392 228.181 110.351 228.252 110.337C228.324 110.324 228.399 110.339 228.458 110.38C228.519 110.42 228.561 110.483 228.573 110.554C228.586 110.625 228.571 110.699 228.531 110.759C228.485 110.824 228.099 111.383 227.568 112.144C228.691 111.696 229.929 111.632 231.091 111.962C231.133 111.975 231.171 111.997 231.2 112.027C231.232 112.056 231.255 112.093 231.27 112.133C231.282 112.173 231.289 112.216 231.282 112.258C231.276 112.3 231.261 112.34 231.236 112.375C230.254 113.796 227.881 117.189 227.014 118.064L226.87 118.21C224.931 120.169 224.633 120.471 222.205 120.884L222.15 120.892ZM207.966 119.099C207.909 119.098 207.855 119.08 207.809 119.047C207.769 119.02 206.881 118.352 206.445 115.85C206.01 113.405 205.712 109.982 205.677 109.601C205.675 109.565 205.679 109.529 205.689 109.495C205.7 109.46 205.717 109.428 205.74 109.401C205.763 109.373 205.792 109.351 205.826 109.334C205.857 109.318 205.893 109.308 205.929 109.305C206 109.299 206.071 109.321 206.126 109.367C206.18 109.413 206.216 109.479 206.222 109.55C206.256 109.93 206.554 113.328 206.982 115.752C207.379 117.996 208.132 118.604 208.14 118.61C208.197 118.653 208.235 118.717 208.245 118.788C208.253 118.859 208.235 118.93 208.193 118.987C208.165 119.021 208.132 119.049 208.094 119.067C208.054 119.086 208.012 119.095 207.968 119.093L207.966 119.099ZM233.269 115.045C233.206 115.046 233.148 115.025 233.099 114.987C233.049 114.949 233.015 114.895 233.003 114.835C232.988 114.775 232.994 114.712 233.022 114.657C233.049 114.601 233.093 114.556 233.15 114.529C234.276 113.979 235.542 113.777 236.784 113.951C236.857 113.959 236.925 113.995 236.969 114.051C237.015 114.108 237.036 114.18 237.027 114.252C237.019 114.324 236.983 114.39 236.927 114.436C236.87 114.481 236.797 114.502 236.725 114.494C235.586 114.333 234.425 114.516 233.391 115.018C233.353 115.035 233.313 115.042 233.271 115.04L233.269 115.045Z" fill="black"/>
<path d="M206.73 128.895C206.392 128.895 205.954 128.602 205.509 126.578C205.169 124.899 204.963 123.197 204.892 121.487C204.892 121.188 204.546 114.171 206.023 114.097C206.096 114.094 206.168 114.119 206.22 114.167C206.275 114.216 206.306 114.283 206.31 114.355C206.315 114.427 206.289 114.498 206.239 114.551C206.191 114.605 206.124 114.637 206.05 114.641C205.727 114.804 205.232 117.224 205.438 121.459C205.654 125.776 206.396 128.205 206.755 128.352C206.827 128.352 206.896 128.38 206.948 128.431C206.999 128.482 207.028 128.551 207.028 128.623C207.028 128.695 206.999 128.764 206.948 128.815C206.896 128.866 206.827 128.895 206.755 128.895H206.73Z" fill="black"/>
<path d="M201.973 131.457C200.836 131.457 199.854 126.358 199.577 122.633C199.262 118.346 200.013 114.059 201.1 113.98C201.136 113.978 201.172 113.982 201.205 113.993C201.241 114.005 201.272 114.022 201.3 114.046C201.327 114.069 201.348 114.098 201.365 114.129C201.381 114.161 201.39 114.196 201.394 114.232C201.396 114.268 201.392 114.303 201.379 114.337C201.369 114.371 201.352 114.403 201.327 114.43C201.304 114.457 201.276 114.479 201.243 114.495C201.211 114.511 201.176 114.521 201.14 114.524C200.685 114.717 199.776 118.055 200.122 122.598C200.477 127.382 201.522 130.68 201.984 130.916C202.057 130.914 202.126 130.941 202.179 130.99C202.231 131.039 202.263 131.108 202.265 131.18C202.267 131.252 202.24 131.322 202.191 131.374C202.141 131.427 202.072 131.457 202 131.46L201.973 131.457Z" fill="black"/>
<path fill-rule="evenodd" clip-rule="evenodd" d="M272.845 152.519V95.9554C272.845 86.9387 266.615 76.9387 256.441 76.9387C254.164 76.947 251.98 77.8354 250.349 79.4165C248.717 80.9978 247.764 83.1482 247.695 85.4145C247.624 87.6808 248.44 89.8859 249.97 91.5648C251.499 93.2439 253.625 94.2658 255.895 94.415L255.851 105.654L255.809 117.512L256.168 152.948C257.213 153.391 260.484 153.712 264.351 153.712C269.068 153.712 272.889 153.071 272.889 152.481C272.896 152.432 272.879 152.557 272.845 152.519Z" fill="#88ADE6"/>
<path fill-rule="evenodd" clip-rule="evenodd" d="M258.606 156.07C259.355 155.287 260.167 154.568 261.038 153.921C262.091 153.983 263.258 154.016 264.485 154.016C265.807 154.016 267.06 153.978 268.174 153.907C268.34 154.198 268.483 154.5 268.602 154.812C271.175 161.604 270.915 169.21 270.157 172.758C269.968 173.633 268.657 175.176 266.911 175.839C265.82 176.926 264.12 176.953 263.365 176.909C261.456 177.996 259.892 177.681 258.455 177.887C255.427 178.325 255.364 175.108 255.364 175.108L255.15 171.033C253.864 171.821 253.004 171.525 253.004 171.525C253.004 171.525 254.242 168.808 254.827 161.878C255.1 158.735 256.942 157.401 258.4 156.836C258.533 156.355 258.606 156.07 258.606 156.07Z" fill="#FFB9B2"/>
<path fill-rule="evenodd" clip-rule="evenodd" d="M264.179 153.834C266.116 153.846 268.051 153.746 269.975 153.535V158.137C270.117 158.211 270.206 158.287 270.206 158.365C270.206 158.871 267.029 159.281 263.113 159.281C259.309 159.281 256.212 158.895 256.021 158.409H255.977V153.014C256.921 153.492 260.23 153.834 264.179 153.834Z" fill="#FECD5E"/>
<path d="M262.71 159.699C261.009 159.711 259.309 159.62 257.62 159.428C255.746 159.186 255.438 158.884 255.438 158.3V158.262C255.438 158.19 255.467 158.121 255.517 158.07C255.568 158.019 255.637 157.99 255.71 157.99C255.782 157.99 255.851 158.019 255.903 158.07C255.954 158.121 255.983 158.19 255.983 158.262V158.306C255.983 158.45 255.983 158.667 257.687 158.887C261.023 159.246 264.387 159.246 267.723 158.887C269.532 158.656 269.802 158.382 269.802 158.24C269.802 158.168 269.83 158.099 269.882 158.048C269.933 157.997 270.002 157.969 270.075 157.969C270.147 157.969 270.216 157.997 270.268 158.048C270.319 158.099 270.348 158.168 270.348 158.24C270.348 158.865 269.654 159.186 267.794 159.428C266.107 159.62 264.408 159.711 262.71 159.699ZM264.139 153.994C260.767 153.994 255.11 153.777 255.11 152.321C255.11 152.249 255.14 152.179 255.19 152.128C255.24 152.078 255.31 152.049 255.383 152.049C255.454 152.049 255.524 152.078 255.576 152.128C255.626 152.179 255.656 152.249 255.656 152.321C255.656 152.864 258.9 153.451 264.139 153.451C269.379 153.451 272.623 152.864 272.623 152.321C272.623 152.249 272.652 152.179 272.702 152.128C272.753 152.078 272.822 152.049 272.895 152.049C272.967 152.049 273.036 152.078 273.088 152.128C273.139 152.179 273.168 152.249 273.168 152.321C273.168 153.763 267.513 153.986 264.139 153.986V153.994Z" fill="black"/>
<path d="M259.695 178.058C259.63 178.058 259.567 178.035 259.519 177.993C259.492 177.97 259.468 177.942 259.452 177.91C259.437 177.878 259.427 177.843 259.424 177.808C259.42 177.772 259.424 177.737 259.437 177.703C259.447 177.669 259.464 177.637 259.487 177.61C260.159 176.793 260.644 175.84 260.906 174.817C261.158 173.895 261.286 172.945 261.288 171.989C261.288 171.917 261.317 171.848 261.367 171.797C261.42 171.746 261.489 171.718 261.56 171.718C261.634 171.718 261.703 171.746 261.754 171.797C261.806 171.848 261.833 171.917 261.833 171.989C261.831 172.992 261.697 173.991 261.432 174.959C261.145 176.053 260.625 177.073 259.903 177.947C259.88 177.98 259.848 178.007 259.813 178.026C259.775 178.046 259.737 178.057 259.695 178.058ZM263.548 177.192C263.495 177.191 263.445 177.176 263.403 177.148C263.371 177.129 263.346 177.104 263.325 177.075C263.304 177.046 263.289 177.013 263.283 176.978C263.275 176.944 263.273 176.908 263.279 176.872C263.285 176.837 263.298 176.804 263.319 176.773C263.921 175.814 264.647 174.149 264.666 171.674C264.666 171.602 264.693 171.533 264.746 171.482C264.796 171.431 264.865 171.403 264.939 171.403C265.01 171.403 265.079 171.431 265.132 171.482C265.182 171.533 265.212 171.602 265.212 171.674C265.193 174.277 264.42 176.037 263.778 177.059C263.755 177.099 263.722 177.132 263.68 177.155C263.64 177.179 263.594 177.191 263.548 177.192ZM267.178 175.923C267.131 175.923 267.085 175.911 267.043 175.888C267.003 175.864 266.968 175.831 266.945 175.791C266.92 175.751 266.907 175.705 266.905 175.658C266.905 175.612 266.915 175.565 266.938 175.524C267.692 174.045 268.078 172.407 268.061 170.748C268.061 170.676 268.09 170.607 268.141 170.556C268.193 170.505 268.262 170.476 268.334 170.476C268.407 170.476 268.476 170.505 268.527 170.556C268.579 170.607 268.607 170.676 268.607 170.748C268.621 172.494 268.214 174.217 267.421 175.774C267.398 175.818 267.362 175.856 267.32 175.883C267.278 175.909 267.228 175.923 267.178 175.923ZM257.064 173.508H257.028C256.957 173.499 256.892 173.461 256.848 173.404C256.804 173.347 256.785 173.275 256.793 173.204C257.016 171.231 257.12 169.247 257.106 167.262C257.062 167.264 257.018 167.254 256.978 167.235C256.69 168.791 255.964 170.234 254.884 171.394C254.833 171.445 254.764 171.473 254.691 171.473C254.619 171.473 254.55 171.445 254.5 171.394C254.472 171.369 254.454 171.339 254.439 171.306C254.426 171.273 254.418 171.238 254.418 171.202C254.418 171.166 254.426 171.13 254.439 171.097C254.454 171.064 254.472 171.034 254.5 171.009C255.499 169.929 256.174 168.591 256.451 167.148C256.472 167.006 256.548 166.877 256.663 166.79C256.778 166.703 256.923 166.665 257.066 166.684C257.1 166.689 257.135 166.698 257.167 166.711C257.303 166.723 257.429 166.786 257.521 166.886C257.614 166.987 257.664 167.118 257.664 167.254C257.677 169.264 257.572 171.272 257.345 173.269C257.337 173.337 257.303 173.399 257.251 173.443C257.198 173.487 257.131 173.511 257.064 173.508Z" fill="black"/>
<path d="M255.383 152.584C255.31 152.584 255.24 152.556 255.19 152.505C255.14 152.454 255.11 152.385 255.11 152.312V118.626C255.11 118.554 255.14 118.485 255.19 118.434C255.24 118.383 255.31 118.354 255.383 118.354C255.454 118.354 255.524 118.383 255.576 118.434C255.626 118.485 255.656 118.554 255.656 118.626V152.312C255.656 152.385 255.626 152.454 255.576 152.505C255.524 152.556 255.454 152.584 255.383 152.584Z" fill="#5347E9"/>
<path d="M255.746 114.076C255.673 114.076 255.603 114.047 255.553 113.996C255.501 113.945 255.473 113.876 255.473 113.804C255.473 113.732 255.501 113.663 255.553 113.612C255.603 113.561 255.673 113.532 255.746 113.532C256.558 113.531 257.337 113.209 257.91 112.637C258.484 112.065 258.808 111.29 258.81 110.481V97.4957C258.81 97.4236 258.837 97.3547 258.889 97.3037C258.94 97.2527 259.009 97.2241 259.082 97.2241C259.154 97.2241 259.223 97.2527 259.275 97.3037C259.326 97.3547 259.355 97.4236 259.355 97.4957V110.481C259.353 111.434 258.973 112.348 258.296 113.021C257.62 113.695 256.703 114.074 255.746 114.076ZM250.704 114.076C249.747 114.074 248.83 113.695 248.155 113.021C247.479 112.348 247.097 111.434 247.095 110.481V97.4957C247.095 97.4236 247.124 97.3547 247.177 97.3037C247.227 97.2527 247.296 97.2241 247.368 97.2241C247.441 97.2241 247.51 97.2527 247.561 97.3037C247.613 97.3547 247.64 97.4236 247.64 97.4957V110.481C247.643 111.29 247.966 112.065 248.541 112.637C249.113 113.209 249.892 113.531 250.704 113.532C250.777 113.532 250.847 113.561 250.897 113.612C250.949 113.663 250.977 113.732 250.977 113.804C250.977 113.876 250.949 113.945 250.897 113.996C250.847 114.047 250.777 114.076 250.704 114.076Z" fill="#5347E9"/>
<path d="M259.074 97.6968C259.001 97.6968 258.931 97.6682 258.881 97.6172C258.829 97.5662 258.801 97.4972 258.801 97.4251V93.5512C258.795 92.2225 258.291 90.9442 257.387 89.9671C256.483 88.9899 255.245 88.3845 253.914 88.27H253.455C253.398 88.289 253.337 88.289 253.281 88.27H252.911C251.505 88.2786 250.158 88.8405 249.166 89.8333C248.173 90.8262 247.615 92.1694 247.613 93.5702V97.4442C247.613 97.5163 247.586 97.5852 247.533 97.6362C247.483 97.6872 247.414 97.7158 247.34 97.7158C247.269 97.7158 247.2 97.6872 247.149 97.6362C247.097 97.5852 247.068 97.5163 247.068 97.4442V93.5512C247.07 92.0062 247.687 90.5248 248.78 89.4302C249.875 88.3354 251.361 87.7162 252.911 87.7076H253.096C253.002 82.4319 250.257 77.2023 244.262 77.2023C244.189 77.2023 244.119 77.1737 244.069 77.1227C244.017 77.0717 243.989 77.0027 243.989 76.9306C243.989 76.8585 244.017 76.7896 244.069 76.7386C244.119 76.6876 244.189 76.659 244.262 76.659C250.637 76.659 253.537 82.1684 253.642 87.7185H253.95C255.417 87.8433 256.785 88.5097 257.784 89.5869C258.78 90.6642 259.338 92.0744 259.347 93.5403V97.4143C259.347 97.4509 259.343 97.4874 259.328 97.5217C259.315 97.5558 259.296 97.5871 259.271 97.6134C259.244 97.6398 259.215 97.6609 259.181 97.6751C259.147 97.6895 259.11 97.6968 259.074 97.6968ZM212.309 95.5235C212.236 95.5235 212.167 95.4949 212.116 95.4439C212.064 95.3929 212.037 95.3239 212.037 95.2518V89.1746C212.037 82.7606 216.966 77.3789 223.493 76.659C223.565 76.651 223.638 76.6721 223.695 76.7175C223.751 76.7628 223.787 76.8286 223.795 76.9007C223.804 76.9728 223.783 77.0451 223.737 77.1016C223.691 77.1582 223.625 77.1943 223.552 77.2023C217.278 77.8923 212.574 83.0404 212.574 89.1774V95.2437C212.572 95.3139 212.544 95.3812 212.496 95.4311C212.446 95.4813 212.379 95.5105 212.309 95.5126V95.5235Z" fill="black"/>
<path d="M212.284 98.1043C213.283 98.1043 214.093 97.2978 214.093 96.3031C214.093 95.3084 213.283 94.502 212.284 94.502C211.285 94.502 210.475 95.3084 210.475 96.3031C210.475 97.2978 211.285 98.1043 212.284 98.1043Z" fill="#1D1D1B"/>
</svg>
